<svg width="64" height="64" viewBox="0 0 64 64" fill="none" xmlns="http://www.w3.org/2000/svg">
<rect width="64" height="64" fill="#F5F5F5"/>
<rect width="64" height="64" fill="#EBEBEB"/>
<path d="M64 32C64 49.6731 49.6731 64 32 64C14.3269 64 0 49.6731 0 32C0 14.3269 14.3269 0 32 0C49.6731 0 64 14.3269 64 32ZM8 32C8 45.2548 18.7452 56 32 56C45.2548 56 56 45.2548 56 32C56 18.7452 45.2548 8 32 8C18.7452 8 8 18.7452 8 32Z" fill="#E0E0E0"/>
<path d="M60 32C62.2091 32 64.0257 30.2023 63.7503 28.0104C63.3945 25.1789 62.6608 22.4017 61.5641 19.7541C59.956 15.8717 57.5989 12.3441 54.6274 9.37258C51.6559 6.40111 48.1283 4.044 44.2459 2.43585C40.3634 0.827704 36.2023 -1.83688e-07 32 0C27.7977 1.83688e-07 23.6365 0.827705 19.7541 2.43586C15.8717 4.04401 12.3441 6.40111 9.37258 9.37258C6.40111 12.3441 4.044 15.8717 2.43585 19.7541C1.33919 22.4017 0.605471 25.1789 0.249677 28.0104C-0.0257509 30.2023 1.79086 32 4 32C6.20914 32 7.96608 30.197 8.33257 28.0185C8.63217 26.2376 9.13253 24.4919 9.82689 22.8156C11.033 19.9038 12.8008 17.258 15.0294 15.0294C17.258 12.8008 19.9038 11.033 22.8156 9.82689C25.7274 8.62078 28.8483 8 32 8C35.1517 8 38.2726 8.62078 41.1844 9.82689C44.0962 11.033 46.742 12.8008 48.9706 15.0294C51.1992 17.258 52.967 19.9038 54.1731 22.8156C54.8675 24.4919 55.3678 26.2376 55.6674 28.0185C56.0339 30.197 57.7909 32 60 32Z" fill="black"/>
</svg>
