<svg width="16" height="16" viewBox="0 0 16 16" fill="none" xmlns="http://www.w3.org/2000/svg">
<path d="M4.66602 14V12" stroke="black" stroke-linecap="round" stroke-linejoin="round"/>
<path d="M11.334 14V10" stroke="black" stroke-linecap="round" stroke-linejoin="round"/>
<path d="M11.334 4V2" stroke="black" stroke-linecap="round" stroke-linejoin="round"/>
<path d="M4.66602 6V2" stroke="black" stroke-linecap="round" stroke-linejoin="round"/>
<path d="M4.66602 12C4.04476 12 3.73414 12 3.4891 11.8985C3.1624 11.7632 2.90284 11.5036 2.76751 11.1769C2.66602 10.9319 2.66602 10.6213 2.66602 10C2.66602 9.37873 2.66602 9.06813 2.76751 8.82307C2.90284 8.4964 3.1624 8.2368 3.4891 8.10147C3.73414 8 4.04476 8 4.66602 8C5.28727 8 5.5979 8 5.84293 8.10147C6.16963 8.2368 6.4292 8.4964 6.56452 8.82307C6.66602 9.06813 6.66602 9.37873 6.66602 10C6.66602 10.6213 6.66602 10.9319 6.56452 11.1769C6.4292 11.5036 6.16963 11.7632 5.84293 11.8985C5.5979 12 5.28727 12 4.66602 12Z" stroke="black"/>
<path d="M11.334 8C10.7127 8 10.4021 8 10.1571 7.89853C9.83038 7.7632 9.57078 7.5036 9.43545 7.17693C9.33398 6.93187 9.33398 6.62125 9.33398 6C9.33398 5.37875 9.33398 5.06812 9.43545 4.82309C9.57078 4.49639 9.83038 4.23682 10.1571 4.10149C10.4021 4 10.7127 4 11.334 4C11.9553 4 12.2659 4 12.5109 4.10149C12.8376 4.23682 13.0972 4.49639 13.2325 4.82309C13.334 5.06812 13.334 5.37875 13.334 6C13.334 6.62125 13.334 6.93187 13.2325 7.17693C13.0972 7.5036 12.8376 7.7632 12.5109 7.89853C12.2659 8 11.9553 8 11.334 8Z" stroke="black"/>
</svg>
