<svg width="80" height="34" viewBox="0 0 80 34" fill="none" xmlns="http://www.w3.org/2000/svg">
<rect width="80" height="34" rx="17" fill="black"/>
<path d="M21.5 19.25V14.75C21.5 12.6287 21.5 11.568 20.841 10.909C20.1819 10.25 19.1213 10.25 17 10.25H14C11.8787 10.25 10.818 10.25 10.159 10.909C9.5 11.568 9.5 12.6287 9.5 14.75V19.25C9.5 21.3713 9.5 22.4319 10.159 23.091C10.818 23.75 11.8787 23.75 14 23.75H23" stroke="#FCEE23" stroke-width="1.125" stroke-linecap="round" stroke-linejoin="round"/>
<path d="M12.5 14H18.5" stroke="#FCEE23" stroke-width="1.125" stroke-linecap="round" stroke-linejoin="round"/>
<path d="M12.5 17H18.5" stroke="#FCEE23" stroke-width="1.125" stroke-linecap="round" stroke-linejoin="round"/>
<path d="M12.5 20H15.5" stroke="#FCEE23" stroke-width="1.125" stroke-linecap="round" stroke-linejoin="round"/>
<path d="M21.5 14H22.25C23.3106 14 23.841 14 24.1705 14.3295C24.5 14.659 24.5 15.1893 24.5 16.25V22.25C24.5 23.0784 23.8284 23.75 23 23.75C22.1716 23.75 21.5 23.0784 21.5 22.25V14Z" stroke="#FCEE23" stroke-width="1.125" stroke-linecap="round" stroke-linejoin="round"/>
<path d="M35.232 23V12.57H36.212L42.33 21.348H41.952V12.57H43.072V23H42.092L35.974 14.166H36.352V23H35.232ZM48.8026 23.168C48.1026 23.168 47.4679 23 46.8986 22.664C46.3386 22.3187 45.8953 21.8473 45.5686 21.25C45.2419 20.6527 45.0786 19.976 45.0786 19.22C45.0786 18.464 45.2373 17.7967 45.5546 17.218C45.8719 16.63 46.3013 16.168 46.8426 15.832C47.3933 15.496 48.0093 15.328 48.6906 15.328C49.2319 15.328 49.7126 15.4307 50.1326 15.636C50.5619 15.832 50.9259 16.1027 51.2246 16.448C51.5233 16.784 51.7519 17.1667 51.9106 17.596C52.0693 18.016 52.1486 18.45 52.1486 18.898C52.1486 18.9913 52.1439 19.0987 52.1346 19.22C52.1253 19.332 52.1113 19.4487 52.0926 19.57H45.7506V18.59H51.4906L50.9866 19.01C51.0706 18.4967 51.0099 18.0393 50.8046 17.638C50.6086 17.2273 50.3239 16.9053 49.9506 16.672C49.5773 16.4293 49.1573 16.308 48.6906 16.308C48.2239 16.308 47.7899 16.4293 47.3886 16.672C46.9966 16.9147 46.6886 17.2553 46.4646 17.694C46.2406 18.1233 46.1519 18.6367 46.1986 19.234C46.1519 19.8313 46.2453 20.354 46.4786 20.802C46.7213 21.2407 47.0479 21.5813 47.4586 21.824C47.8786 22.0667 48.3266 22.188 48.8026 22.188C49.3533 22.188 49.8153 22.0573 50.1886 21.796C50.5619 21.5347 50.8653 21.208 51.0986 20.816L51.9946 21.292C51.8453 21.628 51.6166 21.9407 51.3086 22.23C51.0006 22.51 50.6319 22.7387 50.2026 22.916C49.7826 23.084 49.3159 23.168 48.8026 23.168ZM55.6519 23L53.0759 15.496H54.2659L56.3939 22.062H55.9739L57.9759 15.496H59.0259L61.0279 22.062H60.6079L62.7499 15.496H63.9259L61.3499 23H60.2999L58.3539 16.574H58.6479L56.7019 23H55.6519ZM67.7601 23.168C67.0415 23.168 66.4115 22.986 65.8701 22.622C65.3288 22.258 64.9368 21.7633 64.6941 21.138L65.5761 20.718C65.7908 21.1753 66.0895 21.5393 66.4721 21.81C66.8641 22.0807 67.2935 22.216 67.7601 22.216C68.2081 22.216 68.5861 22.1087 68.8941 21.894C69.2021 21.67 69.3561 21.3807 69.3561 21.026C69.3561 20.7647 69.2815 20.5593 69.1321 20.41C68.9828 20.2513 68.8101 20.13 68.6141 20.046C68.4181 19.962 68.2455 19.9013 68.0961 19.864L67.0181 19.556C66.3275 19.36 65.8281 19.0847 65.5201 18.73C65.2121 18.3753 65.0581 17.9647 65.0581 17.498C65.0581 17.0593 65.1701 16.6767 65.3941 16.35C65.6181 16.0233 65.9215 15.7713 66.3041 15.594C66.6868 15.4167 67.1115 15.328 67.5781 15.328C68.2128 15.328 68.7868 15.496 69.3001 15.832C69.8228 16.1587 70.1915 16.616 70.4061 17.204L69.5101 17.624C69.3235 17.204 69.0528 16.8773 68.6981 16.644C68.3528 16.4013 67.9655 16.28 67.5361 16.28C67.1161 16.28 66.7801 16.3873 66.5281 16.602C66.2761 16.8167 66.1501 17.0873 66.1501 17.414C66.1501 17.666 66.2155 17.8667 66.3461 18.016C66.4768 18.1653 66.6261 18.2773 66.7941 18.352C66.9715 18.4267 67.1255 18.4827 67.2561 18.52L68.5021 18.884C69.1088 19.0613 69.5801 19.3367 69.9161 19.71C70.2615 20.0833 70.4341 20.522 70.4341 21.026C70.4341 21.4367 70.3175 21.8053 70.0841 22.132C69.8601 22.4587 69.5475 22.7153 69.1461 22.902C68.7448 23.0793 68.2828 23.168 67.7601 23.168Z" fill="#FCEE23"/>
</svg>
