<svg width="99" height="34" viewBox="0 0 99 34" fill="none" xmlns="http://www.w3.org/2000/svg">
<rect width="99" height="34" rx="17" fill="black"/>
<path d="M20.75 13.25V16.25C20.75 18.321 19.071 20 17 20C14.9289 20 13.25 18.321 13.25 16.25V13.25C13.25 11.1789 14.9289 9.5 17 9.5C19.071 9.5 20.75 11.1789 20.75 13.25Z" stroke="#FCEE23" stroke-width="1.125"/>
<path d="M23 16.25C23 19.5637 20.3137 22.25 17 22.25M17 22.25C13.6863 22.25 11 19.5637 11 16.25M17 22.25V24.5M17 24.5H19.25M17 24.5H14.75" stroke="#FCEE23" stroke-width="1.125" stroke-linecap="round"/>
<path d="M35.232 23V12.57H38.816C39.4973 12.57 40.0947 12.7053 40.608 12.976C41.1213 13.2373 41.518 13.6107 41.798 14.096C42.0873 14.572 42.232 15.1273 42.232 15.762C42.232 16.3967 42.0873 16.952 41.798 17.428C41.518 17.904 41.1213 18.2773 40.608 18.548C40.104 18.8093 39.5067 18.94 38.816 18.94H36.352V23H35.232ZM36.352 17.89H38.872C39.32 17.89 39.712 17.806 40.048 17.638C40.384 17.4607 40.6453 17.2133 40.832 16.896C41.0187 16.5693 41.112 16.1867 41.112 15.748C41.112 15.3093 41.0187 14.9313 40.832 14.614C40.6453 14.2967 40.384 14.054 40.048 13.886C39.712 13.7087 39.32 13.62 38.872 13.62H36.352V17.89ZM47.3147 23.168C46.6053 23.168 45.9613 23 45.3827 22.664C44.804 22.3187 44.342 21.852 43.9967 21.264C43.6607 20.6667 43.4927 19.99 43.4927 19.234C43.4927 18.4873 43.6607 17.82 43.9967 17.232C44.3327 16.644 44.7853 16.182 45.3547 15.846C45.9333 15.5007 46.5867 15.328 47.3147 15.328C48.0427 15.328 48.6913 15.496 49.2607 15.832C49.8393 16.168 50.292 16.63 50.6187 17.218C50.9547 17.806 51.1227 18.478 51.1227 19.234C51.1227 19.9993 50.95 20.6807 50.6047 21.278C50.2593 21.866 49.7973 22.328 49.2187 22.664C48.6493 23 48.0147 23.168 47.3147 23.168ZM47.3147 22.118C47.8187 22.118 48.2713 21.992 48.6727 21.74C49.0833 21.488 49.4053 21.1427 49.6387 20.704C49.8813 20.2653 50.0027 19.7753 50.0027 19.234C50.0027 18.6927 49.8813 18.2073 49.6387 17.778C49.4053 17.3487 49.0833 17.008 48.6727 16.756C48.2713 16.504 47.8187 16.378 47.3147 16.378C46.8107 16.378 46.3533 16.504 45.9427 16.756C45.5413 17.008 45.2193 17.3487 44.9767 17.778C44.734 18.2073 44.6127 18.6927 44.6127 19.234C44.6127 19.7753 44.734 20.2653 44.9767 20.704C45.2193 21.1427 45.5413 21.488 45.9427 21.74C46.3533 21.992 46.8107 22.118 47.3147 22.118ZM56.3625 23.168C55.6625 23.168 55.0325 23 54.4725 22.664C53.9125 22.3187 53.4692 21.852 53.1425 21.264C52.8252 20.6667 52.6665 19.9947 52.6665 19.248C52.6665 18.492 52.8252 17.82 53.1425 17.232C53.4692 16.644 53.9078 16.182 54.4585 15.846C55.0185 15.5007 55.6532 15.328 56.3625 15.328C57.0065 15.328 57.5805 15.468 58.0845 15.748C58.5885 16.028 58.9852 16.406 59.2745 16.882L59.1065 17.176V12.402H60.1565V23H59.1065V21.32L59.2745 21.474C59.0132 22.0153 58.6212 22.4353 58.0985 22.734C57.5852 23.0233 57.0065 23.168 56.3625 23.168ZM56.4185 22.118C56.9225 22.118 57.3752 21.992 57.7765 21.74C58.1872 21.488 58.5092 21.1473 58.7425 20.718C58.9852 20.2793 59.1065 19.7893 59.1065 19.248C59.1065 18.7067 58.9852 18.2213 58.7425 17.792C58.5092 17.3533 58.1872 17.008 57.7765 16.756C57.3752 16.504 56.9225 16.378 56.4185 16.378C55.9238 16.378 55.4758 16.504 55.0745 16.756C54.6732 17.008 54.3558 17.3487 54.1225 17.778C53.8985 18.2073 53.7865 18.6973 53.7865 19.248C53.7865 19.7893 53.8985 20.2793 54.1225 20.718C54.3558 21.1473 54.6685 21.488 55.0605 21.74C55.4618 21.992 55.9145 22.118 56.4185 22.118ZM65.7424 23.168C65.005 23.168 64.3564 22.9953 63.7964 22.65C63.2364 22.3047 62.7977 21.838 62.4804 21.25C62.163 20.6527 62.0044 19.9807 62.0044 19.234C62.0044 18.4873 62.163 17.82 62.4804 17.232C62.7977 16.644 63.2364 16.182 63.7964 15.846C64.3564 15.5007 65.005 15.328 65.7424 15.328C66.209 15.328 66.6477 15.412 67.0584 15.58C67.469 15.748 67.833 15.9767 68.1504 16.266C68.4677 16.546 68.7057 16.8727 68.8644 17.246L67.9124 17.736C67.7257 17.3347 67.441 17.008 67.0584 16.756C66.6757 16.504 66.237 16.378 65.7424 16.378C65.2477 16.378 64.7997 16.504 64.3984 16.756C64.0064 16.9987 63.6937 17.3393 63.4604 17.778C63.2364 18.2073 63.1244 18.6973 63.1244 19.248C63.1244 19.7893 63.2364 20.2793 63.4604 20.718C63.6937 21.1473 64.0064 21.488 64.3984 21.74C64.7997 21.992 65.2477 22.118 65.7424 22.118C66.237 22.118 66.671 21.992 67.0444 21.74C67.427 21.488 67.7164 21.152 67.9124 20.732L68.8644 21.25C68.7057 21.614 68.4677 21.9407 68.1504 22.23C67.833 22.5193 67.469 22.748 67.0584 22.916C66.6477 23.084 66.209 23.168 65.7424 23.168ZM72.7402 23.168C72.2642 23.168 71.8395 23.0793 71.4662 22.902C71.0929 22.7153 70.7989 22.4633 70.5842 22.146C70.3695 21.8287 70.2622 21.4647 70.2622 21.054C70.2622 20.662 70.3462 20.3073 70.5142 19.99C70.6822 19.6633 70.9435 19.388 71.2982 19.164C71.6529 18.94 72.1055 18.7813 72.6562 18.688L75.5962 18.198V19.15L72.9082 19.598C72.3669 19.6913 71.9749 19.864 71.7322 20.116C71.4989 20.368 71.3822 20.6667 71.3822 21.012C71.3822 21.348 71.5129 21.6327 71.7742 21.866C72.0449 22.0993 72.3902 22.216 72.8102 22.216C73.3235 22.216 73.7715 22.1087 74.1542 21.894C74.5369 21.67 74.8355 21.3713 75.0502 20.998C75.2649 20.6247 75.3722 20.2093 75.3722 19.752V17.848C75.3722 17.4 75.2089 17.036 74.8822 16.756C74.5555 16.476 74.1309 16.336 73.6082 16.336C73.1509 16.336 72.7495 16.4527 72.4042 16.686C72.0589 16.91 71.8022 17.204 71.6342 17.568L70.6822 17.05C70.8222 16.7327 71.0415 16.4433 71.3402 16.182C71.6482 15.9207 71.9982 15.7153 72.3902 15.566C72.7822 15.4073 73.1882 15.328 73.6082 15.328C74.1589 15.328 74.6442 15.4353 75.0642 15.65C75.4935 15.8647 75.8249 16.1633 76.0582 16.546C76.3009 16.9193 76.4222 17.3533 76.4222 17.848V23H75.3722V21.502L75.5262 21.656C75.3955 21.936 75.1902 22.1927 74.9102 22.426C74.6395 22.65 74.3175 22.832 73.9442 22.972C73.5802 23.1027 73.1789 23.168 72.7402 23.168ZM81.1859 23.168C80.4672 23.168 79.8372 22.986 79.2959 22.622C78.7546 22.258 78.3626 21.7633 78.1199 21.138L79.0019 20.718C79.2166 21.1753 79.5152 21.5393 79.8979 21.81C80.2899 22.0807 80.7192 22.216 81.1859 22.216C81.6339 22.216 82.0119 22.1087 82.3199 21.894C82.6279 21.67 82.7819 21.3807 82.7819 21.026C82.7819 20.7647 82.7072 20.5593 82.5579 20.41C82.4086 20.2513 82.2359 20.13 82.0399 20.046C81.8439 19.962 81.6712 19.9013 81.5219 19.864L80.4439 19.556C79.7532 19.36 79.2539 19.0847 78.9459 18.73C78.6379 18.3753 78.4839 17.9647 78.4839 17.498C78.4839 17.0593 78.5959 16.6767 78.8199 16.35C79.0439 16.0233 79.3472 15.7713 79.7299 15.594C80.1126 15.4167 80.5372 15.328 81.0039 15.328C81.6386 15.328 82.2126 15.496 82.7259 15.832C83.2486 16.1587 83.6172 16.616 83.8319 17.204L82.9359 17.624C82.7492 17.204 82.4786 16.8773 82.1239 16.644C81.7786 16.4013 81.3912 16.28 80.9619 16.28C80.5419 16.28 80.2059 16.3873 79.9539 16.602C79.7019 16.8167 79.5759 17.0873 79.5759 17.414C79.5759 17.666 79.6412 17.8667 79.7719 18.016C79.9026 18.1653 80.0519 18.2773 80.2199 18.352C80.3972 18.4267 80.5512 18.4827 80.6819 18.52L81.9279 18.884C82.5346 19.0613 83.0059 19.3367 83.3419 19.71C83.6872 20.0833 83.8599 20.522 83.8599 21.026C83.8599 21.4367 83.7432 21.8053 83.5099 22.132C83.2859 22.4587 82.9732 22.7153 82.5719 22.902C82.1706 23.0793 81.7086 23.168 81.1859 23.168ZM88.575 23.084C87.903 23.084 87.385 22.888 87.021 22.496C86.657 22.104 86.475 21.544 86.475 20.816V16.546H85.089V15.496H85.439C85.7563 15.496 86.0083 15.3933 86.195 15.188C86.3816 14.9733 86.475 14.7073 86.475 14.39V13.76H87.525V15.496H89.177V16.546H87.525V20.816C87.525 21.068 87.5623 21.292 87.637 21.488C87.7116 21.6747 87.8376 21.824 88.015 21.936C88.2016 22.048 88.449 22.104 88.757 22.104C88.8316 22.104 88.9203 22.0993 89.023 22.09C89.1256 22.0807 89.2143 22.0713 89.289 22.062V23C89.177 23.028 89.051 23.0467 88.911 23.056C88.771 23.0747 88.659 23.084 88.575 23.084Z" fill="#FCEE23"/>
</svg>
