<svg width="76" height="76" viewBox="0 0 76 76" fill="none" xmlns="http://www.w3.org/2000/svg">
<path d="M36.9917 5.24385C37.4548 4.49406 38.5452 4.49406 39.0083 5.24385L49.9901 23.0224C50.7403 24.2368 51.7632 25.2597 52.9776 26.0099L70.7561 36.9917C71.5059 37.4548 71.5059 38.5452 70.7561 39.0083L52.9776 49.9901C51.7632 50.7403 50.7403 51.7632 49.9901 52.9776L39.0083 70.7561C38.5452 71.5059 37.4548 71.5059 36.9917 70.7561L26.0099 52.9776C25.2597 51.7632 24.2368 50.7403 23.0224 49.9901L5.24385 39.0083C4.49406 38.5452 4.49406 37.4548 5.24385 36.9917L23.0224 26.0099C24.2368 25.2597 25.2597 24.2368 26.0099 23.0224L36.9917 5.24385Z" stroke="black" stroke-width="8"/>
</svg>
